<svg width="32" height="32" viewBox="0 0 32 32" fill="none" xmlns="http://www.w3.org/2000/svg">
<path fill-rule="evenodd" clip-rule="evenodd" d="M29.1628 15.3528L25.0938 9.09751C24.9013 8.80155 24.5738 8.62329 24.2227 8.62329H19.1608V6.38318C19.1608 5.80334 18.6945 5.33331 18.1192 5.33331H3.70829C3.13298 5.33331 2.66663 5.80334 2.66663 6.38318V23.517C2.66663 24.0969 3.13298 24.5669 3.70829 24.5669H7.01246C7.44246 25.7889 8.60032 26.6666 9.95829 26.6666C11.3163 26.6666 12.4741 25.7889 12.9041 24.5669H20.2597C20.6897 25.7889 21.8476 26.6666 23.2055 26.6666C24.5635 26.6666 25.7213 25.7889 26.1514 24.5669H28.2916C28.8669 24.5669 29.3333 24.0969 29.3333 23.517V15.9284C29.3333 15.7239 29.274 15.5238 29.1628 15.3528ZM9.95833 24.5668C9.38396 24.5668 8.91667 24.0958 8.91667 23.5169C8.91667 22.938 9.38396 22.4671 9.95833 22.4671C10.5327 22.4671 11 22.938 11 23.5169C11 24.0958 10.5327 24.5668 9.95833 24.5668ZM17.0776 22.4672H12.9041C12.4741 21.2452 11.3163 20.3674 9.95828 20.3674C8.60031 20.3674 7.4425 21.2452 7.01245 22.4672H4.75V7.43304H17.0776V22.4672ZM23.2056 24.5668C22.6312 24.5668 22.1639 24.0958 22.1639 23.5169C22.1639 22.938 22.6312 22.4671 23.2056 22.4671C23.7799 22.4671 24.2472 22.938 24.2472 23.5169C24.2472 24.0958 23.7799 24.5668 23.2056 24.5668ZM27.25 22.4671H26.1513C25.7213 21.2451 24.5635 20.3673 23.2055 20.3673C21.8475 20.3673 20.6897 21.2451 20.2597 22.4671H19.1608V10.7229H23.66L27.25 16.2418V22.4671Z" fill="#7B8E98"/>
</svg>
