<svg width="16" height="16" viewBox="0 0 16 16" fill="none" xmlns="http://www.w3.org/2000/svg">
<path fill-rule="evenodd" clip-rule="evenodd" d="M12.9517 13.3333C14.0386 13.3333 14.6667 12.7297 14.6667 11.5341V5.1267C14.6667 3.93691 14.0326 3.33331 12.7705 3.33331H3.0483C1.96135 3.33331 1.33333 3.93111 1.33333 5.1267V11.5341C1.33333 12.7355 1.96739 13.3333 3.22946 13.3333H12.9517ZM8.01207 8.98624C7.77053 8.98624 7.53502 8.87597 7.2814 8.62641L2.72222 4.30255C2.85507 4.25032 3.01207 4.2213 3.19323 4.2213H12.8068C12.994 4.2213 13.157 4.25032 13.2899 4.31416L8.74275 8.62641C8.48309 8.87597 8.24758 8.98624 8.01207 8.98624ZM2.26328 11.6328C2.25724 11.6038 2.25724 11.5689 2.25724 11.5341V5.06866L5.72946 8.34202L2.26328 11.6328ZM13.7427 11.6154L10.2947 8.34202L13.7427 5.08607V11.6154ZM12.8068 12.4453H3.19323C3.02415 12.4453 2.87318 12.4221 2.75241 12.3699L6.36352 8.93981L6.75603 9.31126C7.17874 9.71172 7.58333 9.88003 8.01207 9.88003C8.43478 9.88003 8.84541 9.71172 9.26811 9.31126L9.66062 8.93981L13.2657 12.3641C13.1328 12.4221 12.9819 12.4453 12.8068 12.4453Z" fill="#7B8E98"/>
</svg>
